<svg xmlns="http://www.w3.org/2000/svg" version="1.1" xmlns:xlink="http://www.w3.org/1999/xlink" xmlns:svgjs="http://svgjs.dev/svgjs" width="1000" height="1000" viewBox="0 0 1000 1000"><rect width="1000" height="1000" fill="#000000"></rect><g transform="matrix(0.7,0,0,0.7,149.5757594926066,386.8790961271558)"><svg viewBox="0 0 396 128" data-background-color="#282634" preserveAspectRatio="xMidYMid meet" height="323" width="1000" xmlns="http://www.w3.org/2000/svg" xmlns:xlink="http://www.w3.org/1999/xlink"><g id="tight-bounds" transform="matrix(1,0,0,1,0.24000108438889356,0.04014018453804624)"><svg viewBox="0 0 395.52 127.91971746214615" height="127.91971746214615" width="395.52"><g><svg viewBox="0 0 670.2762471526702 216.78182685415962" height="127.91971746214615" width="395.52"><g><rect width="9.374579945500418" height="188.23313475035565" x="240.8408820095247" y="14.274346051901986" fill="#ffffff" opacity="1" stroke-width="0" stroke="transparent" fill-opacity="1" class="rect-o-0" data-fill-palette-color="primary" rx="1%" id="o-0" data-palette-color="#ff4057"></rect></g><g transform="matrix(1,0,0,1,274.7562471526702,29.96044061443162)"><svg viewBox="0 0 395.52 156.86094562529638" height="156.86094562529638" width="395.52"><g id="textblocktransform"><svg viewBox="0 0 395.52 156.86094562529638" height="156.86094562529638" width="395.52" id="textblock"><g><svg viewBox="0 0 395.52 103.95290159798148" height="103.95290159798148" width="395.52"><g transform="matrix(1,0,0,1,0,0)"><svg width="395.52" viewBox="-12.5 -31.25 118.9000015258789 31.25" height="103.95290159798148" data-palette-color="#ff4057"><path d="M21.55-4.95L19.6 0 9.6 0 22.75-31.25 37.45-31.25 39.65 0 29.6 0 29.4-4.95 21.55-4.95ZM24.65-12.9L28.65-12.9 28.65-21.65 28.15-21.65 24.65-12.9ZM8.95-2.4L8-0.2-12.5-2.4 8.95-2.4ZM11-7.25L10.05-5.05-10.45-7.25 11-7.25ZM13-12.05L12.1-9.85-8.4-12.05 13-12.05ZM15.05-16.85L14.1-14.65-6.35-16.85 15.05-16.85ZM17.05-21.65L16.15-19.45-4.3-21.65 17.05-21.65ZM21.1-31.25L20.2-29.1-0.2-31.25 21.1-31.25ZM19.05-26.45L18.15-24.3-2.25-26.45 19.05-26.45ZM-0.2-31.25L20.2-29.1 21.1-31.25-0.2-31.25ZM55.45-0.15L34.25-2.4 55.3-2.4 55.45-0.15ZM55.15-5L33.95-7.25 55-7.25 55.15-5ZM54-24.2L32.8-26.45 53.85-26.45 54-24.2ZM54.25-19.4L33.1-21.65 54.15-21.65 54.25-19.4ZM53.7-29L32.55-31.25 53.6-31.25 53.7-29ZM54.55-14.6L33.4-16.85 54.4-16.85 54.55-14.6ZM54.85-9.8L33.7-12.05 54.7-12.05 54.85-9.8ZM55.1-31.25L65.65-31.25 65.65-11.4 66.1-11.4 73.65-31.25 83.7-31.25 70.85 0 56.95 0 55.1-31.25ZM100.9 0L91.4 0 96.9-31.25 106.4-31.25 100.9 0ZM90.3-2.4L89.9-0.15 68.7-2.4 90.3-2.4ZM92-12.05L91.6-9.8 70.4-12.05 92-12.05ZM92.85-16.85L92.45-14.6 71.25-16.85 92.85-16.85ZM93.7-21.65L93.3-19.4 72.1-21.65 93.7-21.65ZM94.5-26.45L94.15-24.2 72.95-26.45 94.5-26.45ZM91.15-7.25L90.75-5 69.55-7.25 91.15-7.25ZM95.35-31.25L94.95-29 73.8-31.25 95.35-31.25Z" opacity="1" transform="matrix(1,0,0,1,0,0)" fill="#ffffff" class="wordmark-text-0" data-fill-palette-color="primary" id="text-0"></path></svg></g></svg></g><g transform="matrix(1,0,0,1,0,128.49368679562656)"><svg viewBox="0 0 232.20979200000002 28.367258829669808" height="28.367258829669808" width="232.20979200000002"><g transform="matrix(1,0,0,1,0,0)"><svg width="232.20979200000002" viewBox="-0.45000001788139343 -37.099998474121094 402.30999755859375 49.1519660949707" height="28.367258829669808" data-palette-color="#dcdcdc"><path d="M1.8 12.05Q1.4 12.05 0.5 10.88-0.4 9.7-0.4 9.2L-0.4 9.2-0.15 8.85Q2.65 8.85 5.08 6.53 7.5 4.2 9.25 0L9.25 0Q5.4-12.2 3.05-18.4L3.05-18.4Q2.6-19.65 1.78-20.2 0.95-20.75-0.35-20.8L-0.35-20.8-0.45-21-0.15-22.65 4-22.6Q5.85-22.6 7.68-22.75 9.5-22.9 10-22.95L10-22.95 10.1-22.7 9.8-21.15Q8.1-21.1 7.53-20.83 6.95-20.55 6.95-19.85L6.95-19.85Q6.95-19.05 7.93-15.7 8.9-12.35 9.95-9.03 11-5.7 11.35-4.7L11.35-4.7 11.55-4.7Q17.3-18.45 17.3-19.65L17.3-19.65Q17.3-20.95 15.4-20.95L15.4-20.95 13.1-20.95 13-21.15 13.3-22.8Q13.75-22.75 15.3-22.68 16.85-22.6 18.4-22.6L18.4-22.6 22.65-22.65 22.3-20.8Q21.2-20.6 20.63-20.03 20.05-19.45 19.5-17.95L19.5-17.95 13.15-2.75Q10.55 3.55 8.9 6.6 7.25 9.65 5.65 10.88 4.05 12.1 1.8 12.05L1.8 12.05ZM33.8 0.6Q30.7 0.6 28.3-0.78 25.9-2.15 24.6-4.67 23.3-7.2 23.3-10.45L23.3-10.45Q23.3-13.8 24.82-16.75 26.35-19.7 28.9-21.45 31.45-23.2 34.35-23.2L34.35-23.2Q38-23.2 39.9-21.35 41.8-19.5 41.8-15.95L41.8-15.95Q41.8-14.5 41.5-13.5L41.5-13.5 40.85-12.9 27.05-12.9Q27-8.05 28.97-5.43 30.95-2.8 34.5-2.8L34.5-2.8Q37.3-2.8 40.6-4.35L40.6-4.35 40.9-4.25 41.45-2.8Q39.65-1.5 37.47-0.45 35.3 0.6 33.8 0.6L33.8 0.6ZM27.25-14.75L36.3-15.2Q37.05-15.3 37.3-15.55 37.55-15.8 37.55-16.55L37.55-16.55Q37.55-18.55 36.47-19.6 35.4-20.65 33.4-20.65L33.4-20.65Q31.05-20.65 29.37-19.05 27.7-17.45 27.25-14.75L27.25-14.75ZM62.5 0.6Q58.45 0.6 58.05-3.45L58.05-3.45 57.85-3.5Q56.05-1.7 54.57-0.65 53.1 0.4 52.35 0.4L52.35 0.4Q49.55 0.4 47.75-1.35 45.95-3.1 45.95-5.8L45.95-5.8Q45.95-7.25 46.67-8.35 47.4-9.45 48.6-9.8L48.6-9.8 58.1-12.4 58.15-14.6Q58.15-17.1 57-18.5 55.85-19.9 53.75-19.9L53.75-19.9Q52.35-19.9 50.8-19.25 49.25-18.6 47.75-17.4L47.75-17.4 47.5-17.55 46.9-19.7Q49.25-21.05 51.62-22.13 54-23.2 55.05-23.2L55.05-23.2Q58.3-23.2 60.15-21.5 62-19.8 62-16.75L62-16.75Q62-15.65 61.65-12.25L61.65-12.25Q61.09-6.75 61.09-5.25L61.09-5.25Q61.09-4.15 61.65-3.55 62.2-2.95 63.15-2.95L63.15-2.95Q63.95-2.95 64.8-3.33 65.65-3.7 66.15-4.2L66.15-4.2 66.84-3.4Q66.09-2.15 64.92-0.98 63.75 0.2 62.5 0.6L62.5 0.6ZM53.2-3Q54.15-3 55.42-3.68 56.7-4.35 57.75-5.4L57.75-5.4 58-10.5 51.2-8.45Q49.75-8 49.75-6.35L49.75-6.35Q49.75-4.9 50.72-3.95 51.7-3 53.2-3L53.2-3ZM68.94-1.95Q70.39-2.1 70.97-2.7 71.54-3.3 71.54-4.7L71.54-4.7 71.54-31.3Q71.54-32.65 71.09-33.27 70.64-33.9 69.69-33.9L69.69-33.9 68.64-33.9 68.44-34.05 68.64-35.65Q70.34-35.85 72.49-36.27 74.64-36.7 76.04-37.1L76.04-37.1 76.34-36.45Q75.99-35.9 75.67-31.1 75.34-26.3 75.14-19.3L75.14-19.3Q80.84-23.2 82.64-23.2L82.64-23.2Q85.89-23.2 87.69-21.5 89.49-19.8 89.49-16.75L89.49-16.75Q89.49-15.75 89.14-12.15L89.14-12.15Q88.69-6.3 88.69-4.9L88.69-4.9Q88.69-3.45 89.09-2.78 89.49-2.1 90.44-2.1L90.44-2.1 92.19-2.2 92.29-2 91.89 0.15Q88.59 0 87.44 0L87.44 0Q85.44 0 82.29 0.6L82.29 0.6 82.49-1.45Q83.99-1.85 84.64-2.63 85.29-3.4 85.29-4.7L85.29-4.7 85.59-14.6Q85.59-17.1 84.52-18.45 83.44-19.8 81.44-19.8L81.44-19.8Q80.19-19.8 78.37-19 76.54-18.2 75.09-17.05L75.09-17.05Q74.94-11.45 74.94-4.9L74.94-4.9Q74.94-3.35 75.34-2.73 75.74-2.1 76.74-2.1L76.74-2.1 78.49-2.2 78.59-2 78.14 0.15Q74.69 0 73.59 0L73.59 0Q71.44 0 68.64 0.1L68.64 0.1 68.94-1.95ZM112.89 0.85Q112.19-1.55 110.01-8.58 107.84-15.6 106.99-18.3L106.99-18.3Q106.14-20.75 103.69-20.8L103.69-20.8 103.59-21 103.89-22.65 107.89-22.6Q109.79-22.6 111.51-22.75 113.24-22.9 113.74-22.95L113.74-22.95 113.84-22.7 113.54-21.15Q111.89-21.1 111.29-20.83 110.69-20.55 110.69-19.85L110.69-19.85Q110.69-18.9 112.44-12.68 114.19-6.45 114.84-4.25L114.84-4.25 115.04-4.25 117.99-11.65Q119.59-15.5 120.29-17.5L120.29-17.5Q119.74-19.2 118.96-20 118.19-20.8 116.74-20.8L116.74-20.8 116.64-21 116.94-22.65 120.94-22.6Q122.79-22.6 124.54-22.7 126.29-22.8 126.79-22.85L126.79-22.85 126.89-22.6 126.59-21.05Q124.89-21 124.31-20.75 123.74-20.5 123.74-19.85L123.74-19.85Q123.74-18.95 125.49-12.73 127.24-6.5 127.89-4.25L127.89-4.25 128.09-4.25Q130.29-9.9 130.99-11.5L130.99-11.5Q132.24-14.6 133.06-16.8 133.89-19 133.89-19.6L133.89-19.6Q133.89-20.3 133.41-20.58 132.94-20.85 131.84-20.85L131.84-20.85 129.99-20.85 129.79-21.15 130.04-22.7Q130.49-22.7 131.84-22.65 133.19-22.6 134.99-22.6L134.99-22.6 139.09-22.65 138.74-20.8Q137.74-20.7 137.14-19.98 136.54-19.25 135.64-17.05L135.64-17.05 128.64 0 125.94 0.85 121.44-13.9 121.14-13.9 115.64 0 112.89 0.85ZM140.79-1.95Q142.24-2.1 142.81-2.7 143.39-3.3 143.39-4.7L143.39-4.7 143.39-31.3Q143.39-32.65 142.94-33.27 142.49-33.9 141.54-33.9L141.54-33.9 140.49-33.9 140.29-34.05 140.49-35.65Q142.19-35.85 144.34-36.27 146.49-36.7 147.89-37.1L147.89-37.1 148.19-36.45Q147.84-35.9 147.51-31.1 147.19-26.3 146.99-19.3L146.99-19.3Q152.69-23.2 154.49-23.2L154.49-23.2Q157.74-23.2 159.54-21.5 161.34-19.8 161.34-16.75L161.34-16.75Q161.34-15.75 160.99-12.15L160.99-12.15Q160.54-6.3 160.54-4.9L160.54-4.9Q160.54-3.45 160.94-2.78 161.34-2.1 162.29-2.1L162.29-2.1 164.04-2.2 164.14-2 163.74 0.15Q160.44 0 159.29 0L159.29 0Q157.29 0 154.14 0.6L154.14 0.6 154.34-1.45Q155.84-1.85 156.49-2.63 157.14-3.4 157.14-4.7L157.14-4.7 157.44-14.6Q157.44-17.1 156.36-18.45 155.29-19.8 153.29-19.8L153.29-19.8Q152.04-19.8 150.21-19 148.39-18.2 146.94-17.05L146.94-17.05Q146.79-11.45 146.79-4.9L146.79-4.9Q146.79-3.35 147.19-2.73 147.59-2.1 148.59-2.1L148.59-2.1 150.34-2.2 150.44-2 149.99 0.15Q146.54 0 145.44 0L145.44 0Q143.29 0 140.49 0.1L140.49 0.1 140.79-1.95ZM184.33 0.6Q180.28 0.6 179.88-3.45L179.88-3.45 179.68-3.5Q177.88-1.7 176.41-0.65 174.93 0.4 174.18 0.4L174.18 0.4Q171.38 0.4 169.58-1.35 167.78-3.1 167.78-5.8L167.78-5.8Q167.78-7.25 168.51-8.35 169.23-9.45 170.43-9.8L170.43-9.8 179.93-12.4 179.98-14.6Q179.98-17.1 178.83-18.5 177.68-19.9 175.58-19.9L175.58-19.9Q174.18-19.9 172.63-19.25 171.08-18.6 169.58-17.4L169.58-17.4 169.33-17.55 168.73-19.7Q171.08-21.05 173.46-22.13 175.83-23.2 176.88-23.2L176.88-23.2Q180.13-23.2 181.98-21.5 183.83-19.8 183.83-16.75L183.83-16.75Q183.83-15.65 183.48-12.25L183.48-12.25Q182.93-6.75 182.93-5.25L182.93-5.25Q182.93-4.15 183.48-3.55 184.03-2.95 184.98-2.95L184.98-2.95Q185.78-2.95 186.63-3.33 187.48-3.7 187.98-4.2L187.98-4.2 188.68-3.4Q187.93-2.15 186.76-0.98 185.58 0.2 184.33 0.6L184.33 0.6ZM175.03-3Q175.98-3 177.26-3.68 178.53-4.35 179.58-5.4L179.58-5.4 179.83-10.5 173.03-8.45Q171.58-8 171.58-6.35L171.58-6.35Q171.58-4.9 172.56-3.95 173.53-3 175.03-3L175.03-3ZM199.33 0.6Q195.93 0.6 194.53-0.78 193.13-2.15 193.13-5.45L193.13-5.45 193.13-17.75Q193.13-19.1 192.53-19.65 191.93-20.2 190.28-20.25L190.28-20.25 190.08-20.55 190.33-22.05Q191.78-22.75 193.16-23.78 194.53-24.8 195.41-25.58 196.28-26.35 196.53-26.6L196.53-26.6 197.53-26.2Q197.48-25.95 197.38-25 197.28-24.05 197.13-22.45L197.13-22.45 204.48-22.6 204.63-22.45 204.18-19.8 196.93-19.95Q196.58-14.45 196.58-7.45L196.58-7.45Q196.58-4.9 197.46-3.85 198.33-2.8 200.48-2.8L200.48-2.8Q201.23-2.8 201.98-3 202.73-3.2 203.23-3.43 203.73-3.65 203.88-3.7L203.88-3.7 204.38-2.4Q204.08-2.15 203.11-1.45 202.13-0.75 201.01-0.08 199.88 0.6 199.33 0.6L199.33 0.6ZM217.83 0.6Q214.73 0.6 212.33-0.78 209.93-2.15 208.63-4.67 207.33-7.2 207.33-10.45L207.33-10.45Q207.33-13.8 208.85-16.75 210.38-19.7 212.93-21.45 215.48-23.2 218.38-23.2L218.38-23.2Q222.03-23.2 223.93-21.35 225.83-19.5 225.83-15.95L225.83-15.95Q225.83-14.5 225.53-13.5L225.53-13.5 224.88-12.9 211.08-12.9Q211.03-8.05 213-5.43 214.98-2.8 218.53-2.8L218.53-2.8Q221.33-2.8 224.63-4.35L224.63-4.35 224.93-4.25 225.48-2.8Q223.68-1.5 221.5-0.45 219.33 0.6 217.83 0.6L217.83 0.6ZM211.28-14.75L220.33-15.2Q221.08-15.3 221.33-15.55 221.58-15.8 221.58-16.55L221.58-16.55Q221.58-18.55 220.5-19.6 219.43-20.65 217.43-20.65L217.43-20.65Q215.08-20.65 213.4-19.05 211.73-17.45 211.28-14.75L211.28-14.75ZM237.03 0.85Q236.28-1.55 234.05-8.58 231.83-15.6 230.93-18.3L230.93-18.3Q230.08-20.7 227.53-20.8L227.53-20.8 227.43-21 227.73-22.65 231.88-22.6Q233.78-22.6 235.58-22.75 237.38-22.9 237.88-22.95L237.88-22.95 237.98-22.7 237.68-21.15Q235.98-21.1 235.35-20.83 234.73-20.55 234.73-19.85L234.73-19.85Q234.73-18.95 236.53-12.73 238.33-6.5 238.98-4.3L238.98-4.3 239.18-4.3 241.93-11Q243.28-14.3 244.18-16.65 245.08-19 245.08-19.6L245.08-19.6Q245.08-20.25 244.6-20.53 244.13-20.8 242.93-20.8L242.93-20.8 241.03-20.8 240.83-21.1 241.08-22.65 246.43-22.6 250.53-22.65 250.18-20.8Q249.13-20.65 248.53-19.95 247.93-19.25 246.98-17.05L246.98-17.05 239.83 0 237.03 0.85ZM261.67 0.6Q258.57 0.6 256.17-0.78 253.77-2.15 252.47-4.67 251.17-7.2 251.17-10.45L251.17-10.45Q251.17-13.8 252.7-16.75 254.22-19.7 256.77-21.45 259.32-23.2 262.22-23.2L262.22-23.2Q265.87-23.2 267.77-21.35 269.67-19.5 269.67-15.95L269.67-15.95Q269.67-14.5 269.37-13.5L269.37-13.5 268.72-12.9 254.92-12.9Q254.87-8.05 256.85-5.43 258.82-2.8 262.37-2.8L262.37-2.8Q265.17-2.8 268.47-4.35L268.47-4.35 268.77-4.25 269.32-2.8Q267.52-1.5 265.35-0.45 263.17 0.6 261.67 0.6L261.67 0.6ZM255.12-14.75L264.17-15.2Q264.92-15.3 265.17-15.55 265.42-15.8 265.42-16.55L265.42-16.55Q265.42-18.55 264.35-19.6 263.27-20.65 261.27-20.65L261.27-20.65Q258.92-20.65 257.25-19.05 255.57-17.45 255.12-14.75L255.12-14.75ZM274.72-1.8Q276.22-1.95 276.72-2.78 277.22-3.6 277.22-5.95L277.22-5.95 277.22-16.95Q277.22-18.6 276.77-19.3 276.32-20 275.32-20L275.32-20Q274.92-20 274.65-19.95 274.37-19.9 274.27-19.85L274.27-19.85 274.02-20.2 274.17-21.75Q276.07-22.1 278.2-22.6 280.32-23.1 280.92-23.25L280.92-23.25 281.27-22.95Q281.17-22.5 280.97-20.88 280.77-19.25 280.82-17.8L280.82-17.8 281.02-17.65Q282.52-20 284.55-21.5 286.57-23 288.07-23L288.07-23Q288.77-23 289.15-22.93 289.52-22.85 289.62-22.8L289.62-22.8 289.77-22.6Q289.67-21.9 289.35-19.63 289.02-17.35 288.97-15.45L288.97-15.45 287.02-15.3Q287.02-17.35 286.75-18.03 286.47-18.7 285.67-18.7L285.67-18.7Q284.57-18.7 283.32-17.78 282.07-16.85 281.02-15.3L281.02-15.3Q280.97-13.85 280.82-10.5 280.67-7.15 280.62-5.1L280.62-5.1Q280.62-3.4 281.12-2.8 281.62-2.2 283.02-2.2L283.02-2.2Q283.67-2.2 284.32-2.25 284.97-2.3 285.22-2.3L285.22-2.3 285.27-2.1 284.82 0.1Q284.32 0.1 282.82 0.05 281.32 0 279.72 0L279.72 0Q277.87 0 276.37 0.08 274.87 0.15 274.47 0.2L274.47 0.2 274.72-1.8ZM323.31 0.6Q319.42 0.6 318.87-2.95L318.87-2.95 318.51-3.1Q313.31 0.45 312.26 0.45L312.26 0.45Q309.42 0.45 307.21-0.88 305.01-2.2 303.81-4.6 302.62-7 302.62-10.1L302.62-10.1Q302.62-13.65 304.29-16.65 305.96-19.65 308.84-21.43 311.71-23.2 315.06-23.2L315.06-23.2Q316.67-23.2 318.51-23L318.51-23 318.51-31.3Q318.51-34 316.67-34L316.67-34Q316.31-34 315.92-33.93 315.51-33.85 315.42-33.8L315.42-33.8 315.62-35.65Q317.76-35.95 320.06-36.45 322.37-36.95 323.01-37.1L323.01-37.1 323.31-36.45Q322.76-35.6 322.34-25.9 321.92-16.2 321.92-5.25L321.92-5.25Q321.92-4.15 322.46-3.55 323.01-2.95 323.96-2.95L323.96-2.95Q324.67-2.95 325.34-3.23 326.01-3.5 326.44-3.8 326.87-4.1 326.96-4.2L326.96-4.2 327.67-3.4Q327.51-3.15 326.92-2.33 326.31-1.5 325.34-0.6 324.37 0.3 323.31 0.6L323.31 0.6ZM313.06-2.8Q314.12-2.8 315.34-3.4 316.56-4 317.42-4.63 318.26-5.25 318.51-5.45L318.51-5.45 318.51-19.15Q318.37-19.25 317.76-19.53 317.17-19.8 316.09-20.05 315.01-20.3 313.67-20.3L313.67-20.3Q310.31-20.3 308.39-18.03 306.46-15.75 306.46-11.8L306.46-11.8Q306.46-9.3 307.34-7.25 308.21-5.2 309.74-4 311.26-2.8 313.06-2.8L313.06-2.8ZM332.16-17.35Q332.16-20.05 330.31-20.05L330.31-20.05Q329.96-20.05 329.56-19.98 329.16-19.9 329.06-19.85L329.06-19.85 329.26-21.7Q331.21-22 333.46-22.53 335.71-23.05 336.41-23.2L336.41-23.2 336.71-22.6Q336.21-21.3 335.81-16.7 335.41-12.1 335.41-7.75L335.41-7.75Q335.41-2.85 339.41-2.85L339.41-2.85Q340.91-2.85 342.21-3.58 343.51-4.3 345.46-5.7L345.46-5.7 345.46-17.3Q345.46-18.8 344.91-19.4 344.36-20 342.96-20L342.96-20 341.76-19.95 341.96-21.75Q344.16-22.05 346.56-22.55 348.96-23.05 349.66-23.2L349.66-23.2 349.96-22.6Q349.51-21.45 349.19-16.35 348.86-11.25 348.86-5.25L348.86-5.25Q348.86-4.15 349.41-3.55 349.96-2.95 350.91-2.95L350.91-2.95Q351.61-2.95 352.29-3.23 352.96-3.5 353.39-3.8 353.81-4.1 353.91-4.2L353.91-4.2 354.61-3.4Q354.41-3.1 353.69-2.15 352.96-1.2 351.99-0.3 351.01 0.6 350.26 0.6L350.26 0.6Q346.21 0.6 345.81-3.45L345.81-3.45 345.56-3.55Q343.16-1.7 341.24-0.55 339.31 0.6 338.61 0.6L338.61 0.6Q335.41 0.6 333.69-0.9 331.96-2.4 331.96-5.2L331.96-5.2 332.16-17.35ZM377.21 0.6Q373.31 0.6 372.76-2.95L372.76-2.95 372.41-3.1Q367.21 0.45 366.16 0.45L366.16 0.45Q363.31 0.45 361.11-0.88 358.91-2.2 357.71-4.6 356.51-7 356.51-10.1L356.51-10.1Q356.51-13.65 358.19-16.65 359.86-19.65 362.74-21.43 365.61-23.2 368.96-23.2L368.96-23.2Q370.56-23.2 372.41-23L372.41-23 372.41-31.3Q372.41-34 370.56-34L370.56-34Q370.21-34 369.81-33.93 369.41-33.85 369.31-33.8L369.31-33.8 369.51-35.65Q371.66-35.95 373.96-36.45 376.26-36.95 376.91-37.1L376.91-37.1 377.21-36.45Q376.66-35.6 376.24-25.9 375.81-16.2 375.81-5.25L375.81-5.25Q375.81-4.15 376.36-3.55 376.91-2.95 377.86-2.95L377.86-2.95Q378.56-2.95 379.24-3.23 379.91-3.5 380.34-3.8 380.76-4.1 380.86-4.2L380.86-4.2 381.56-3.4Q381.41-3.15 380.81-2.33 380.21-1.5 379.24-0.6 378.26 0.3 377.21 0.6L377.21 0.6ZM366.96-2.8Q368.01-2.8 369.24-3.4 370.46-4 371.31-4.63 372.16-5.25 372.41-5.45L372.41-5.45 372.41-19.15Q372.26-19.25 371.66-19.53 371.06-19.8 369.99-20.05 368.91-20.3 367.56-20.3L367.56-20.3Q364.21-20.3 362.29-18.03 360.36-15.75 360.36-11.8L360.36-11.8Q360.36-9.3 361.24-7.25 362.11-5.2 363.64-4 365.16-2.8 366.96-2.8L366.96-2.8ZM393.86 0.6Q390.76 0.6 388.36-0.78 385.96-2.15 384.66-4.67 383.36-7.2 383.36-10.45L383.36-10.45Q383.36-13.8 384.88-16.75 386.41-19.7 388.96-21.45 391.51-23.2 394.41-23.2L394.41-23.2Q398.06-23.2 399.96-21.35 401.86-19.5 401.86-15.95L401.86-15.95Q401.86-14.5 401.56-13.5L401.56-13.5 400.91-12.9 387.11-12.9Q387.06-8.05 389.03-5.43 391.01-2.8 394.56-2.8L394.56-2.8Q397.36-2.8 400.66-4.35L400.66-4.35 400.96-4.25 401.51-2.8Q399.71-1.5 397.53-0.45 395.36 0.6 393.86 0.6L393.86 0.6ZM387.31-14.75L396.36-15.2Q397.11-15.3 397.36-15.55 397.61-15.8 397.61-16.55L397.61-16.55Q397.61-18.55 396.53-19.6 395.46-20.65 393.46-20.65L393.46-20.65Q391.11-20.65 389.43-19.05 387.76-17.45 387.31-14.75L387.31-14.75Z" opacity="1" transform="matrix(1,0,0,1,0,0)" fill="#ffffff" class="slogan-text-1" data-fill-palette-color="secondary" id="text-1"></path></svg></g></svg></g></svg></g></svg></g><g><svg viewBox="0 0 216.30009681187963 216.78182685415962" height="216.78182685415962" width="216.30009681187963"><g><svg xmlns="http://www.w3.org/2000/svg" xmlns:xlink="http://www.w3.org/1999/xlink" version="1.1" x="0" y="0" viewBox="30.400001525878906 30.099998474121094 89.80000305175781 90" enable-background="new 25 25 100 100" xml:space="preserve" height="216.78182685415962" width="216.30009681187963" class="icon-icon-0" data-fill-palette-color="accent" id="icon-0"><g fill="#dcdcdc" data-fill-palette-color="accent"><path d="M75.3 120.1c-24.8 0-44.9-20.1-44.9-44.9s20.1-45.1 44.9-45.1 44.9 20.1 44.9 44.9S100.1 120.1 75.3 120.1zM75.3 34.9c-22.2 0-40.3 18-40.3 40.2s18 40.3 40.3 40.3 40.2-18 40.2-40.3S97.5 34.9 75.3 34.9z" fill="#ffffff" data-fill-palette-color="accent"></path></g><g fill="#dcdcdc" data-fill-palette-color="accent"><path d="M57.3 77.5c-8.3 0-15-6.8-15-15.1s6.8-15 15.1-15 15 6.8 15 15.1S65.6 77.5 57.3 77.5zM57.3 52.2c-5.7 0-10.2 4.5-10.2 10.2s4.5 10.2 10.2 10.2 10.2-4.5 10.2-10.2S62.9 52.2 57.3 52.2z" fill="#ffffff" data-fill-palette-color="accent"></path></g><g fill="#dcdcdc" data-fill-palette-color="accent"><path d="M93 77.1c-8.3 0-15.1-6.8-15.1-15s6.7-15 15.1-15c8.3 0 15 6.8 15 15S101.2 77.1 93 77.1zM93 51.9c-5.7 0-10.2 4.5-10.2 10.2S87.4 72.4 93 72.4c5.7 0 10.2-4.5 10.2-10.2S98.6 51.9 93 51.9z" fill="#ffffff" data-fill-palette-color="accent"></path></g><g fill="#dcdcdc" data-fill-palette-color="accent"><circle cx="57.1" cy="62.5" r="5.9" fill="#ffffff" data-fill-palette-color="accent"></circle></g><g fill="#dcdcdc" data-fill-palette-color="accent"><circle cx="92.8" cy="62.2" r="5.9" fill="#ffffff" data-fill-palette-color="accent"></circle></g><g fill="#dcdcdc" data-fill-palette-color="accent"><rect x="44.8" y="86.4" width="60.6" height="6.3" fill="#ffffff" data-fill-palette-color="accent"></rect></g></svg></g></svg></g></svg></g><defs></defs></svg><rect width="395.52" height="127.91971746214615" fill="none" stroke="none" visibility="hidden"></rect></g></svg></g></svg>